<svg data-name="Layer 1" xmlns="http://www.w3.org/2000/svg" viewBox="0 0 500 500"><defs><linearGradient id="a" x1="309.34" y1="128" x2="309.34" y2="195.69" gradientTransform="matrix(1 0 0 -1 -92.9 414.98)" gradientUnits="userSpaceOnUse"><stop offset="0" stop-color="#ff1242"/><stop offset=".53" stop-color="#fdff00"/><stop offset="1" stop-color="#00d431"/></linearGradient></defs><path d="M353.7 350.1l-14.64-12.46a5.44 5.44 0 116.94-8.37c2.12 1.21 2.1 1.19 2.35 1.31a5.94 5.94 0 01.92.62l14.64 12.46a5.5 5.5 0 01.77 7.69 5.41 5.41 0 01-6.79 1.12l-2.39-1.3a5.68 5.68 0 01-1.8-1.07zm.62-.73a4.48 4.48 0 105.8-6.82l-14.64-12.46a4.48 4.48 0 10-5.8 6.82zm-14-13.21a3.5 3.5 0 114.53-5.32l14.63 12.46a3.49 3.49 0 11-4.52 5.32zm.64-4.68c-1 .72-1.22 2.8.35 4.14 1.1.93 4.39 4 4.65 3.65.04.01-5.6-5.75-4.96-7.79zM359.79 336.38h-.07a17.58 17.58 0 01-4.49-1.95c-6.85-4.17-10.54-12.93-6.21-20 3.69-6.05 12.05-7.88 19.05-4.57l2 .73a17.27 17.27 0 013 1.46c6.87 4.18 10.41 13 6.18 19.94-3.47 5.7-10.85 7.59-17.45 5.17zm9.39-24.89c-6.83-4.16-15.64-2.69-19.34 3.38-4 6.62-.53 14.82 5.89 18.72 6.82 4.16 15.58 2.8 19.33-3.37 3.94-6.5.6-14.79-5.88-18.73zm-12.93 21.24c-5.94-3.62-9.23-11.24-5.52-17.33 3.42-5.62 11.58-6.88 17.91-3 6.05 3.68 9.17 11.34 5.54 17.31-3.46 5.65-11.57 6.89-17.93 3.02zm-4.43-9c-1.1-3.82.18-7.11-.19-7.34-1.39 1.68-1.59 5.14-1 7.27a9.19 9.19 0 003.77 5.53 25.72 25.72 0 01-2.58-5.48zm8.18 2.87c2.89 1.76 6.55 1.57 7.95-.73 1.26-2.07.14-5.45-3-7.37-2.93-1.78-6.58-1.47-7.91.72s-.21 5.46 2.96 7.38zm4.41-7.24c2.64 1.61 3.65 4.34 2.66 6-1.1 1.8-4.12 1.87-6.54.4-2.65-1.61-3.64-4.32-2.63-6s4.03-1.89 6.49-.4zm-.57 6.48a2.5 2.5 0 002.41-1c.68-1.13-.06-3-1.92-4.37a2.5 2.5 0 00-2.22 1c-.72 1.16-.06 3.02 1.71 4.37zM381.77 312.24a5.51 5.51 0 01-2.1-.32l-18.17-6.28a5.67 5.67 0 01-3.57-6.93c.84-2.43 2.88-3.19 4.68-3.76l6.08-1.94-2.54-.88a5.46 5.46 0 113.43-10.37c2.42.36 2.4.35 2.67.37a5.12 5.12 0 011.08.25l18.17 6.28c2.54.88 4.6 3.82 3.6 6.7-.84 2.43-2.91 3.14-4.8 3.9-1.66.68-3.85 1.72-5.46 2.21l2 .69a5.37 5.37 0 01-2.44 10.44h-.24zm5.81-23.24l-18.17-6.28a4.5 4.5 0 10-3 8.5l5.4 1.87-9 2.77c-1.59.49-3.36 1.15-4.06 3.16a4.67 4.67 0 003 5.71L380 311a4.5 4.5 0 102.94-8.5l-5.29-1.83 8.73-2.77c1.75-.64 3.5-1.23 4.23-3.34.82-2.37-.9-4.82-3.03-5.56zm-1.51 8l-11.67 3.6 8.21 2.84a3.52 3.52 0 11-2.3 6.64l-18.17-6.28a3.63 3.63 0 01-2.33-4.44c.55-1.59 2-2.14 3.42-2.55l11.9-3.63-8.34-2.89a3.51 3.51 0 112.29-6.64l18.17 6.28a3.55 3.55 0 012.38 4.3c-.58 1.68-2.06 2.21-3.56 2.77zm-25 2.24c-.67 1-.12 3.06 1.83 3.73 1.36.47 5.52 2.09 5.66 1.71-.04-.02-7.34-3.36-7.56-5.48zm6.21-11a4.21 4.21 0 01-1.54-2.54c-.66 1-.11 3.06 1.84 3.73 1.36.48 3.38 1.17 3.45.95a15.91 15.91 0 01-3.78-2.16zM106.89 290.21a5.89 5.89 0 011.88-1.07l18.12-6.55a5.48 5.48 0 017.17 3.35l3 8.18c1.85 5.12-1.41 10.23-5.78 12.17l-2.71 1.71a9.3 9.3 0 01-1.85.9 9.7 9.7 0 01-3 .6c-.27.12-.62.35-2.45 1.42a17 17 0 01-2.66 1.37 10.33 10.33 0 01-13.33-5.89l-3-8.14a5.42 5.42 0 012.21-6.59zm29.23 4.24l-3-8.19a4.56 4.56 0 00-6-2.77L109.1 290a4.55 4.55 0 00-2.79 6l3 8.15a9.45 9.45 0 0012.19 5.36 10 10 0 004.55-3.38 9.38 9.38 0 004.28-.5c4.21-1.53 7.54-6.35 5.79-11.18zm-10.61 10.65a8.87 8.87 0 01-4.39 3.5 8.43 8.43 0 01-10.89-4.78l-3-8.15a3.59 3.59 0 012.15-4.7l18.12-6.55a3.53 3.53 0 014.64 2.19l3 8.19c1.55 4.26-1.43 8.53-5.22 9.9a8.81 8.81 0 01-4.41.4zm-6.51-3.2a1.73 1.73 0 001.06-2.27l-1.61-4.44-3.31 1.2 1.6 4.44a1.73 1.73 0 002.26 1.07zm-2.58-4.9l1.4-.5 1.27 3.51a.79.79 0 01-.45 1 .77.77 0 01-1-.5zm15.64-7.34c-.29-.86-.52-1.5-.79-2.11a3.68 3.68 0 00-1.28-1.76 3.34 3.34 0 00-2.54-.05c-.48.15-1.08.34-1.68.56-1.7.61-3.79 1.37-3.72 1.57s5-1.58 7-.95c2.13.68 3.27 5.09 3.52 5s-.01-.77-.51-2.3zm-4.38 9.13a1.73 1.73 0 001.07-2.27l-1.61-4.52-3.32 1.2 1.61 4.44a1.71 1.71 0 002.25 1.11zm-2.55-4.94l1.4-.5 1.27 3.51a.79.79 0 01-.45 1 .77.77 0 01-.95-.5zM118.87 315.1l16.91-9a5.43 5.43 0 115.24 9.5c-1.9 1.53-1.88 1.52-2.08 1.7a4.91 4.91 0 01-.91.63l-16.92 9a5.46 5.46 0 01-7.41-2.09 5.39 5.39 0 011.44-6.71l2.08-1.74a5.81 5.81 0 011.65-1.29zm.45.85a4.47 4.47 0 104.21 7.88l16.91-9a4.47 4.47 0 10-4.21-7.88zm17.38-8.17a3.48 3.48 0 113.28 6.14l-16.92 9a3.49 3.49 0 11-3.28-6.15zm4.11 2.31c-.31-1.19-2.16-2.16-4-1.19-1.26.68-5.27 2.63-5.08 3 .01-.03 7.4-3.11 9.08-1.81zM142.44 344.83v.1a5.75 5.75 0 01-2 2.93l-1.8 2a4.73 4.73 0 01-.78.71 5.66 5.66 0 01-4.78 1 5.45 5.45 0 01-2.93-2 5.32 5.32 0 01-.87-4.72l1.74-6.17-.38-.5-1.32 1a5.51 5.51 0 01-7.67-.94 5.43 5.43 0 01.41-6.85l1.8-2a5.77 5.77 0 011.44-1.53l15.4-11.55a5.53 5.53 0 017.75 1l5.24 7c3.47 4.63 2.26 10.81-2.09 14.7l-1.47 1.68a12.43 12.43 0 01-1.92 1.76 12.28 12.28 0 01-5.77 2.38zm.85-3.51a11.45 11.45 0 006.88-2.34c4.65-3.49 6.16-9.63 2.79-14.13l-5.24-7a4.58 4.58 0 00-6.41-.77l-15.4 11.55a4.47 4.47 0 105.36 7.14l2-1.53 1.35 1.81-1.57 4.59-.47 1.77a4.47 4.47 0 00.71 3.94 4.72 4.72 0 002.51 1.65 4.81 4.81 0 005.72-3.34l1-3.42zm-1.52-1.14l-1.23 4.25a3.71 3.71 0 01-1.33 1.93 3.79 3.79 0 01-3.11.65 3.53 3.53 0 01-1.95-1.27 3.63 3.63 0 01-.56-3.06l2-7-2.1-2.8-2.81 2.12a3.49 3.49 0 11-4.19-5.58l15.4-11.55a3.55 3.55 0 015 .62l5.24 7c3 4 1.65 9.57-2.55 12.72a10.13 10.13 0 01-7.81 1.97zm4.6-20.43a3.3 3.3 0 00-1.73-1.31 3.35 3.35 0 00-2.45.69c-.42.29-.93.64-1.45 1-1.44 1.08-2.58 1.93-2.45 2.1s3.69-2.49 5.72-2.45c2.24 0 3.45 2.15 3.66 2s-.96-1.57-1.3-2.03zm-.16 9.71l-2.93-3.91-4.07 3.05 2.93 3.92a2.5 2.5 0 003.58.44 2.45 2.45 0 00.49-3.5zM143 331.9l-2.35-3.13L143 327l2.35 3.13a1.45 1.45 0 01-.26 2.09 1.47 1.47 0 01-2.09-.32z"/><path d="M146.16 356.54a5.64 5.64 0 011.13-1.82l6.75-7.46-.94-.85a5.45 5.45 0 01-.92-6.84l1.35-2.27a6.13 6.13 0 011.13-1.82 5.55 5.55 0 017.81-.49l11.1 10.01a5.56 5.56 0 01.4 7.73l-1.38 2.31a4.93 4.93 0 01-.65.89 5.49 5.49 0 01-7.74.49l-1.53-1.38-9.16 10.12a5.41 5.41 0 01-8.7-6.39zm15.67-20.84a4.66 4.66 0 00-6.26 6.91l2.19 2-9.76 10.76a4.54 4.54 0 106.73 6.09l9.76-10.78 2.18 2a4.66 4.66 0 006.26-6.91zm10.59 15.86a3.57 3.57 0 01-5.07.35l-2.91-2.63L154 360.8a3.55 3.55 0 11-5.26-4.76l10.44-11.52-2.93-2.66a3.64 3.64 0 014.89-5.4l11.1 10.05a3.56 3.56 0 01.18 5.05zm-11.67-14a3.68 3.68 0 00-1.95-1 2.49 2.49 0 00-2 .81 1.48 1.48 0 00-.18 1.52c.45-1 1.46-1.82 4.11-.32 1.57.87 3.18 2.17 3.22 2.11.24-.16-2.71-2.68-3.2-3.11z"/><path d="M182.05 362l-.17.29 2.59 1.52 2-3.4a5.44 5.44 0 119.46 5.38c-.82 2.3-.81 2.28-.88 2.54a5.16 5.16 0 01-.46 1l-9.72 16.58a5.49 5.49 0 01-7.44 2.1 5.41 5.41 0 01-2.28-6.49l.87-2.58a5.65 5.65 0 01.73-2l.27-.46-2.6-1.48-2.09 3.56a5.47 5.47 0 01-7.43 2.1 5.41 5.41 0 01-2.27-6.48l.87-2.58a5.86 5.86 0 01.73-2l9.77-16.54a5.43 5.43 0 119.42 5.38l-.86 2.51a5.57 5.57 0 01-.51 1.05zm5.24-1.1l-2.48 4.22-4.8-2.81 2.48-4.23a4.47 4.47 0 10-7.7-4.51l-9.73 16.58a4.47 4.47 0 107.7 4.52l2.54-4.33 4.81 2.82-2.54 4.32a4.48 4.48 0 107.72 4.53l9.71-16.6a4.48 4.48 0 10-7.73-4.53zm6.88 4l-9.73 16.59a3.49 3.49 0 11-6-3.54l3.06-5.21-6.5-3.81-3.05 5.22a3.49 3.49 0 11-6-3.52l9.68-16.63a3.61 3.61 0 014.85-1.38 3.57 3.57 0 011.16 4.91l-3 5.11 6.5 3.81 3-5.11a3.5 3.5 0 116 3.53zm-13.81-11.05c-.89-.85-3-.71-4 1.07-.73 1.24-3.13 5-2.78 5.22-.04-.01 4.66-6.51 6.78-6.28zm9.65 8.31a4.21 4.21 0 012.79-1c-.89-.86-3-.71-4 1.07-.73 1.24-1.81 3.08-1.6 3.2a16 16 0 012.8-3.26z"/><path d="M189.37 386.37a5.86 5.86 0 01.35-2.15l6.16-18.29a5.45 5.45 0 017.12-3.53l4.24 1.42a15 15 0 019.52 17.58l-.27 2.15a17.16 17.16 0 01-.71 3.11 14.94 14.94 0 01-18.78 9.73l-4.2-1.39a5.36 5.36 0 01-3.77-5.84zm17.57-21.63l-4.24-1.43a4.53 4.53 0 00-5.91 2.93l-6.16 18.29a4.55 4.55 0 002.92 5.94l4.24 1.43a14.34 14.34 0 009.15-27.16zm-8.81 26.18l-4.25-1.43a3.58 3.58 0 01-2.32-4.64l6.16-18.29a3.56 3.56 0 014.65-2.27l4.24 1.43a13.3 13.3 0 01-8.48 25.2zm6.5-24.65a21.09 21.09 0 00-2.16-.7 3.56 3.56 0 00-2.17-.1 3.36 3.36 0 00-1.63 2c-.18.48-.41 1.06-.61 1.68-.58 1.71-.82 2.41-.61 2.48s1.41-3.51 3.11-4.64c1.87-1.25 6 .62 6.12.37s-.54-.53-2.05-1.09zm0 6.51l-1.46-.49-3.83 11.36 1.46.49c2.74.92 5.93-.95 6.95-4s-.35-6.44-3.08-7.36zm-3.45 10.39l-.57-.19 3.17-9.42.52.18c2.24.75 3.37 3.57 2.52 6.1s-3.41 4.07-5.6 3.33zm1.94-.87a4.14 4.14 0 002.39-1.88 3.67 3.67 0 00-1.16-1.77zM230.93 397l-2.71-.34-.21 1.59a5.47 5.47 0 01-6 4.85 5.41 5.41 0 01-4.65-5.07l-.21-2.71a5.85 5.85 0 01-.1-2.09l1.6-12.57a12.38 12.38 0 0113.89-10.75 12.1 12.1 0 0110.77 12.74l.16 2.18a13.35 13.35 0 01-.06 2.6L241.8 400a5.46 5.46 0 01-6 4.85 5.4 5.4 0 01-4.61-5.06c-.19-2.74-.19-2.79-.26-2.79zm-11.34-16.22L218 393.35a4.48 4.48 0 108.88 1.13l.32-2.48 4.93.63-.32 2.47a4.47 4.47 0 108.86 1.13l1.6-12.57a11.27 11.27 0 00-9.85-12.8 11.38 11.38 0 00-12.83 9.92zm21.69 2.75l-1.6 12.57a3.48 3.48 0 11-6.9-.87l.44-3.5-6.88-.88-.44 3.5a3.5 3.5 0 11-6.93-.88l1.59-12.57a10.44 10.44 0 0120.72 2.63zm-15.82-7.48c3-2.56 5.46-2.59 5.51-2.95a8.48 8.48 0 00-9.23 7.66 18.42 18.42 0 013.72-4.71zm2 5.73l-.27 2.14 6.88.88.28-2.15a3.32 3.32 0 00-3.11-3.53 3.35 3.35 0 00-3.75 2.66zm5.91.75l-.14 1.12-4.93-.63.14-1.12a2.23 2.23 0 012.67-1.76 2.33 2.33 0 012.29 2.39z"/><path d="M243.25 379.37a5.4 5.4 0 01-.53-2 5.61 5.61 0 012-4.74 5.41 5.41 0 013.12-1.26 5.65 5.65 0 014.68 2.11l3.39 4.25c.92-1.56 1.88-3.12 2.78-4.68a5.56 5.56 0 014.34-2.74 5.37 5.37 0 013.22.81 5.7 5.7 0 012.68 4.23l.75 2.67a6.44 6.44 0 01.17 1.07 5.67 5.67 0 01-.74 3.26l-5.84 10 .45 6.41a5.59 5.59 0 01-11 1.9l-.72-2.6a6.31 6.31 0 01-.53-2.06l-.27-3.92-.72-.93c-1.88-2.38-3.89-4.89-5.58-7.11a5.94 5.94 0 01-1-2zm18.64 15.87l-.47-6.7 6-10.23a4.87 4.87 0 00.63-2.75 4.7 4.7 0 00-2.24-3.67 4.48 4.48 0 00-2.65-.66 4.66 4.66 0 00-3.6 2.27l-3.48 5.87-4.26-5.37a4.5 4.5 0 00-6.44-.73 4.72 4.72 0 00-1.7 4 4.84 4.84 0 001 2.63c2.28 3 5 6.4 7.36 9.35l.44 6.65a4.72 4.72 0 109.41-.66zm-8.4.59l-.46-7-7.55-9.6a3.7 3.7 0 01.51-5.12 3.6 3.6 0 012-.8 3.64 3.64 0 013 1.36l5.13 6.47 4.2-7.13a3.69 3.69 0 012.82-1.76 3.46 3.46 0 012.06.51 3.62 3.62 0 011.75 2.86 3.9 3.9 0 01-.48 2.16l-6.11 10.54c.16 2.32.3 4.63.46 7a3.7 3.7 0 11-7.39.52zM247.11 377a2.71 2.71 0 011-2.58c-1.22-.2-2.49.59-2.34 2.65a4.88 4.88 0 001.29 2.57 11.33 11.33 0 002.22 2.42 11.52 11.52 0 01-2.17-5.06zm15.11-2.26a3.37 3.37 0 011.85-.83 3.21 3.21 0 01.7 0 1.9 1.9 0 00-1.73-.65 2.22 2.22 0 00-1.4.72 19.42 19.42 0 00-2.58 4.48c.24.05 1.49-2.4 3.16-3.72zM300.88 373.26a53 53 0 013.14 5.88 4 4 0 01.2 1.25 5.33 5.33 0 01-3.51 5.35l-6.33 2.18 1.35 3.91a5.44 5.44 0 01-3.23 7 5.35 5.35 0 01-6.31-2.48c-.15-.21-.18-.3-1.4-2.34a5.63 5.63 0 01-1-1.84l-6.29-18.21a5.48 5.48 0 013.39-7.12l11.2-3.87a5.32 5.32 0 016.78 3.15l1.34 2.43.11.17a5 5 0 01.48 1 5.84 5.84 0 01.08 3.54zm.36 2.67a4.3 4.3 0 00-5.61-2.71l-7.17 2.48-.28-.82 7.17-2.48a4.53 4.53 0 002.65-5.84 4.31 4.31 0 00-5.6-2.71l-11.21 3.87a4.53 4.53 0 00-2.79 5.89l6.29 18.22A4.42 4.42 0 10293 389l-1.67-5 7.17-2.47a4.42 4.42 0 002.74-5.6zm-19.71-7.23l11.2-3.87a3.29 3.29 0 014.34 2.05 3.51 3.51 0 01-2.06 4.55l-8.1 2.8 1 2.76 8.1-2.79a3.36 3.36 0 112.19 6.35l-8.1 2.8 2.05 5.92a3.45 3.45 0 11-6.51 2.25l-6.3-18.22a3.55 3.55 0 012.19-4.6zm3.07.15c-.87.28-1.5.5-2.12.76a3.64 3.64 0 00-1.78 1.25 3.39 3.39 0 00-.09 2.55c.14.48.32 1.08.54 1.69.58 1.7.83 2.4 1 2.33s-1-3.63-.37-5.55c.71-2.13 5.14-3.2 5.06-3.45s-.7-.06-2.24.42z"/><path d="M307.85 380.28a12.47 12.47 0 01-2.21-2.78l-6.3-11a5.49 5.49 0 119.46-5.5l1.78 2a4.64 4.64 0 01.66.9l5 8.66a1.44 1.44 0 00.72-.19 1.33 1.33 0 00.64-1.73l-6.29-11a5.48 5.48 0 119.46-5.53l1.75 2a5 5 0 01.66.91l6.3 11a12.28 12.28 0 01-20 14.12zM320 354.7a4.52 4.52 0 10-7.83 4.5l6.3 11a2.37 2.37 0 01-4.09 2.35l-6.3-11a4.53 4.53 0 10-7.85 4.51l6.3 11a11.4 11.4 0 1019.77-11.36zm5.44 11.45a10.4 10.4 0 11-18 10.36l-6.29-11a3.53 3.53 0 116.11-3.51l6.3 11a3.36 3.36 0 005.81-3.34l-6.3-11a3.53 3.53 0 116.11-3.51zm-22.17-4.81c-1.19.35-2.11 2.24-1.07 4 .72 1.26 2.8 5.22 3.16 5-.08.06-3.36-7.28-2.14-9zm11.28-3.85a4.22 4.22 0 01.51-2.93c-1.19.35-2.1 2.24-1.07 4 .72 1.26 1.79 3.12 2 3a15.44 15.44 0 01-1.49-4.07zM333.6 368.19a6.48 6.48 0 01-1.7-1.35 5.93 5.93 0 01-1.28-5.24 9.08 9.08 0 01-2.18-1.24l-2-1.51a9.37 9.37 0 01-2.3-1.92c-3.69-4.2-2.84-11.52 1.63-15.45a12.44 12.44 0 015.74-2.92c2.23-.45 6-.47 8 1.72l2.24 1.71a4 4 0 01.7.66 5.8 5.8 0 011.43 3.83 9.43 9.43 0 014.27 2.38l2 1.51a9.83 9.83 0 011.42 1.33c4.25 4.83 2.64 11.9-2 16a13.49 13.49 0 01-12.25 3 6.55 6.55 0 01-1.51-.84zm5.14-20.76a4.71 4.71 0 00.11-6.42c-1.7-1.93-5.1-1.95-7.11-1.51a11.34 11.34 0 00-5.33 2.7c-4.09 3.59-4.88 10.3-1.53 14.1 2.37 2.7 5.58 3.08 9 2.77a4.71 4.71 0 00-.95.62 4.61 4.61 0 00-.28 6.51 4.78 4.78 0 002 1.35 12.35 12.35 0 0011.35-2.77c4.28-3.77 5.81-10.29 1.91-14.72a8.63 8.63 0 00-7.65-2.93 13.09 13.09 0 00-1.52.3zm8.45 3.28c3.49 4 2.07 9.84-1.86 13.3a11.28 11.28 0 01-10.33 2.62 4.06 4.06 0 01-1.62-1.08 3.9 3.9 0 01.24-5.32c.89-.78 2.07-.48 3.37-.47a6.24 6.24 0 003.82-1.54c.67-.58 2-2.08 1.19-2.68-.5-.35-2.78.91-3.67 1.25a24.93 24.93 0 01-5.44 1.37 8.42 8.42 0 01-7.24-2.53c-3-3.37-2.23-9.41 1.46-12.66a10.52 10.52 0 014.87-2.49c1.79-.36 4.76-.41 6.15 1.18a3.66 3.66 0 01-.21 5.13 3.5 3.5 0 01-2.86.79 4.33 4.33 0 00-3.53 1 2 2 0 00-.54 2.4c.27.31 2-.4 3.9-1.13a23.33 23.33 0 015.54-1.65 7.69 7.69 0 016.76 2.51zm-21.16-.8c.09-4 1.88-5.58 1.64-5.85a8.15 8.15 0 00-.53 11.72 17.3 17.3 0 01-1.14-5.87zm8.42-1c-1 .38-2.15.93-2.47 1.08a1.15 1.15 0 01.35-.88 3.17 3.17 0 012.77-.45zm1.49 9.72c.95-.26 1.92-.57 2.77-.88a19.25 19.25 0 002.66-1.34 4.4 4.4 0 01-.83.95 7.15 7.15 0 01-1.48 1 3.85 3.85 0 01-3.12.23zM142 158.47a7.35 7.35 0 011.15.82l9.34 8.28 3.84-4.33a6.87 6.87 0 019.54-.45l2.88 1.68a7.63 7.63 0 011.18.84 6.77 6.77 0 01.85 9.53l-8.76 9.88a6.72 6.72 0 01-8.47 1.19l-2.88-1.67a7 7 0 01-2.3-1.4l-18-15.94a6.68 6.68 0 118.74-10.09zm10.05 11.4l-13.6-12.06a5.48 5.48 0 10-7.26 8.19l18 15.95a5.71 5.71 0 008.06-.28l8.75-9.87a5.86 5.86 0 00-8.75-7.76zm6.14-5a4.57 4.57 0 016.83 6.05l-8.76 9.88a4.47 4.47 0 01-6.3.23l-18-15.94a4.28 4.28 0 115.67-6.4l14.57 12.92zM133 159.25c-1.27.88-1.6 3.47.33 5.18 1.35 1.2 5.38 5.06 5.72 4.68-.05.02-6.89-7.33-6.05-9.86zM189.87 136a7.77 7.77 0 01.88 1.15 8 8 0 01.79 1.91 7.21 7.21 0 014.87 3.17l2.3 2.49a7.53 7.53 0 01.87 1.13 6.77 6.77 0 01-2 9.35l-12.77 7.8a6.67 6.67 0 01-8.45-1.25l-2.28-2.47a6.9 6.9 0 01-1.8-2l-12.6-20.53a6.83 6.83 0 012.2-9.59l12.63-7.76a6.65 6.65 0 019.12 2l2.47 2.78a6.44 6.44 0 01.87 1.12 7.22 7.22 0 01.06 7.5 4.71 4.71 0 01.58.77zm-10 10.24l-.57-.92 5.55-3.41a5.49 5.49 0 10-5.75-9.36l-5.55 3.41-.55-.96 8.08-5a5.67 5.67 0 001.65-7.85 5.41 5.41 0 00-7.57-1.79l-12.63 7.76a5.67 5.67 0 00-1.81 7.94l12.61 20.53a5.71 5.71 0 007.81 2.06l12.73-7.82a5.44 5.44 0 001.8-7.62 5.64 5.64 0 00-7.72-2zm8.75-3.87a4.34 4.34 0 016 1.57 4.16 4.16 0 01-1.42 5.87l-12.73 7.82a4.46 4.46 0 01-6.12-1.59l-12.61-20.53a4.42 4.42 0 011.46-6.21l12.63-7.76a4.13 4.13 0 015.86 1.34 4.38 4.38 0 01-1.29 6.1l-9.13 5.61 1.92 3.11 6.6-4a4.2 4.2 0 114.39 7.16l-6.59 4 1.91 3.12zM167 128.62c-1 .57-1.7 1-2.39 1.5a4.53 4.53 0 00-1.83 2 4.22 4.22 0 00.58 3.13c.31.55.69 1.23 1.12 1.92 1.17 1.92 1.66 2.71 1.89 2.57s-2.24-4.15-2-6.68c.3-2.79 5.41-5.3 5.24-5.58s-.89.14-2.61 1.14zM240.37 109.41a7.33 7.33 0 01.38 1.29l3.05 15.24c1.53 7.62-.4 15.84-11.22 18a11.79 11.79 0 01-6.21-.29 15 15 0 01-6.47 2.83c-8.5 1.71-12.73-2.28-15-7.76l-1.09-2.56a22.87 22.87 0 01-2.16-6.33l-3.06-15.24a7.15 7.15 0 015.58-8.34c2.88-.57 5.94.19 7.56 3.08a7 7 0 015.74-5.74 6.88 6.88 0 017.48 3 7.28 7.28 0 015.78-5.62 7.12 7.12 0 018.31 5.28zm-15.74 0a5.92 5.92 0 00-11.63 2.3l3.09 15.41c.3 1.53.19 2.5-.34 2.61s-1-.75-1.31-2.25L211.37 112a5.93 5.93 0 00-11.62 2.33l3.06 15.23c1.41 7.06 6.05 13.42 16 11.42a10.42 10.42 0 005.56-2.8 10.67 10.67 0 006.24.44c10-2 11.77-9.65 10.35-16.71l-3-15.23a5.93 5.93 0 00-11.62 2.33l3.09 15.41c.31 1.53.2 2.5-.33 2.61s-1-.75-1.31-2.25zm1.84 15.69c.51 2.56 1.29 3.54 2.82 3.23s1.86-1.69 1.38-4.1l-3.1-15.41a4.62 4.62 0 019.06-1.82l3.06 15.24c1.29 6.44-.37 13.41-9.34 15.21a8.87 8.87 0 01-6.3-.73 8.73 8.73 0 01-5.5 3.1c-8.94 1.79-13.16-4-14.45-10.45l-3.1-15.26a4.62 4.62 0 019.06-1.82l3.1 15.44c.51 2.56 1.29 3.54 2.82 3.23s1.86-1.69 1.38-4.1l-3.09-15.41a4.62 4.62 0 019.06-1.82zM205.21 110c-1.54-.06-3.37 1.81-2.87 4.34.36 1.76 1.25 7.27 1.75 7.17-.03.01-1.09-9.97 1.12-11.51zm11.51.63a5.22 5.22 0 011.76-3.26c-1.54-.06-3.37 1.81-2.86 4.34.35 1.76.87 4.38 1.17 4.32a19.41 19.41 0 01-.07-5.4zm13.22-2.71a5.22 5.22 0 011.76-3.26c-1.54-.06-3.37 1.8-2.86 4.33.35 1.77.88 4.39 1.17 4.33a19.86 19.86 0 01-.07-5.4zM269 108.57l6.58-4A6.66 6.66 0 01285 107a7.22 7.22 0 01.93 4.53l.14 3.4a6.71 6.71 0 01-.1 1.35 7 7 0 01-3.29 4.88l-4.46 2.73 3.78 7.19a7.28 7.28 0 01.78 4.32v.18l.14 3.22a6.52 6.52 0 01-.09 1.32 7.07 7.07 0 01-3.44 5 7 7 0 01-4.38.77 6.65 6.65 0 01-4.88-3.6c-1.9-3.65-2.46-4.5-4.4-8.23l-.52 3.14a6.91 6.91 0 01-7.81 5.78 6.83 6.83 0 01-5.61-6.58v-.3l-.11-3a6.73 6.73 0 01-.06-2.65l3.89-23.72a6.84 6.84 0 1113.49 1.84zm-1.22.19a5.66 5.66 0 10-11.16-1.82l-3.88 23.71a5.66 5.66 0 1011.16 1.83l1-6.4 6 11.23a5.61 5.61 0 004.05 2.94 5.9 5.9 0 005.94-8.6c-2.08-3.87-4.12-7.73-6.16-11.62l7.1-4.37a5.9 5.9 0 002.08-8 5.73 5.73 0 00-3.92-2.77 5.59 5.59 0 00-3.8.74l-8.78 5.35zm-2 4.66l11.08-6.73a4.32 4.32 0 013-.58 4.42 4.42 0 013.08 2.15 4.69 4.69 0 01.53 3.06 4.64 4.64 0 01-2.16 3.18l-8.19 5.07 6.74 12.68a4.68 4.68 0 01-1.77 6.19 4.41 4.41 0 01-2.85.54 4.69 4.69 0 01-3.24-2.28c-2.37-4.46-4.28-8-6.65-12.49l-1.55.93-1.16 7.13a4.41 4.41 0 11-8.71-1.42l3.88-23.71a4.41 4.41 0 118.71 1.42zm-2.48-8.62c-1.42-.59-3.79.51-4.21 3-.29 1.78-1.4 7.25-.89 7.33-.06.05 2.5-9.65 5.07-10.33zm15.66 3.9a3.26 3.26 0 012.62.34c.11-.31-.22-.89-.91-1.3a2.91 2.91 0 00-1.94-.41c-1 .13-5.21 2.85-6.48 3.71.18.19 3.91-1.76 6.68-2.34zM305 148.5l-3-1.6-.95 1.77a6.85 6.85 0 01-9.17 3 6.77 6.77 0 01-3.2-8l1-3.27a7.42 7.42 0 01.81-2.49l7.43-14a15.45 15.45 0 0121-6.41 15.13 15.13 0 017 19.65l-.78 2.61a16 16 0 01-1.23 3l-7.42 14a6.82 6.82 0 01-9.2 3 6.74 6.74 0 01-3.15-7.95c.86-3.24.86-3.27.86-3.31zm-6.08-24l-7.43 14a5.6 5.6 0 109.88 5.24l1.46-2.75 5.49 2.91-1.47 2.76a5.59 5.59 0 109.86 5.23l7.43-14a14.06 14.06 0 00-5.85-19.3 14.21 14.21 0 00-19.29 5.93zm24.13 12.81l-7.43 14a4.36 4.36 0 11-7.68-4.09l2.07-3.89-7.66-4.07-2.07 3.9a4.37 4.37 0 11-7.71-4.1l7.43-14a13 13 0 0123.05 12.24zM307.9 121.6c4.69-1.66 7.53-.62 7.74-1-4.82-2.56-11.23-.66-14.17 4.87.22.09 2.25-2.39 6.43-3.87zm-.16 7.59l-1.26 2.38 7.65 4.07 1.27-2.39a4.14 4.14 0 00-2.07-5.51 4.2 4.2 0 00-5.59 1.45zm6.57 3.49l-.66 1.24-5.48-2.92.66-1.24a2.78 2.78 0 013.9-.89c1.59.86 2.27 2.54 1.58 3.81zM322.9 159.29a6.8 6.8 0 011.56-2.14l17.41-16.56c2.5-2.38 7.08-2.79 9.74 0 2.21 2.33 1.89 5 1.49 7.36l-1.34 7.86 2.43-2.31a6.83 6.83 0 119.54 9.77c-1.78 2.47-1.76 2.45-1.94 2.75a6.84 6.84 0 01-.9 1.06l-17.41 16.55c-2.44 2.32-6.89 2.9-9.51.14-2.21-2.32-1.8-5-1.57-7.57.2-2.22.3-5.25.69-7.32l-1.93 1.84A6.71 6.71 0 01321 162l.18-.25zm22.46 19.79l17.41-16.55a5.63 5.63 0 10-7.75-8.15l-5.17 4.92 2.07-11.54c.37-2 .66-4.39-1.18-6.33-2.19-2.3-5.95-2-8 0L325.28 158a5.63 5.63 0 107.76 8.15l5.06-4.82-1.94 11.29c-.29 2.3-.65 4.58 1.28 6.61 2.17 2.3 5.87 1.77 7.92-.15zm-8-6.24l2.67-15-7.87 7.48a4.4 4.4 0 11-6.06-6.37l17.42-16.56a4.52 4.52 0 016.26 0c1.44 1.52 1.2 3.49.86 5.26l-2.8 15.29 8-7.6a4.39 4.39 0 116.05 6.37l-17.41 16.55c-1.59 1.51-4.44 1.95-6.14.17-1.5-1.68-1.24-3.63-.95-5.59zm11.89-29.07c-.77-1.34-3.32-1.89-5.19-.11-1.31 1.24-5.5 4.93-5.14 5.3 0-.02 7.91-6.21 10.36-5.19zM357.9 157a5.26 5.26 0 013.7-.24c-.77-1.34-3.32-1.89-5.19-.11-1.31 1.24-3.24 3.08-3 3.3a19.54 19.54 0 014.49-2.95zM100.76 241.63a6 6 0 01-.36-2.07 5.6 5.6 0 012.33-4.58 5.45 5.45 0 013.19-1 5.39 5.39 0 014.52 2.43c1 1.51 2.06 2.95 3.09 4.46 1-1.48 2.07-3 3.08-4.46a5.64 5.64 0 014.51-2.43 5.37 5.37 0 013.14 1 5.71 5.71 0 012.4 4.34l.55 2.78a4.65 4.65 0 01.1 1.06 5.73 5.73 0 01-1 3.19l-3.51 5.16 2.83 4.16a5.83 5.83 0 011 3l.55 2.71a4.94 4.94 0 01.1 1.08 5.6 5.6 0 01-2.38 4.56 5.38 5.38 0 01-7.58-1.39l-3.1-4.54c-1 1.52-2.11 3-3.14 4.52a5.54 5.54 0 01-4.47 2.4 5.43 5.43 0 01-3.14-1 5.36 5.36 0 01-2.18-3.43l-.53-2.64a6.1 6.1 0 01-.39-2.09 5.66 5.66 0 011-3.21l3.58-5.21-2.81-4.11a5.33 5.33 0 01-.81-2zm24.1.62a4.83 4.83 0 00.84-2.69 4.73 4.73 0 00-2-3.82 4.56 4.56 0 00-2.59-.84 4.63 4.63 0 00-3.75 2l-3.84 5.59-3.86-5.59a4.48 4.48 0 00-6.36-1.18 4.74 4.74 0 00-2 3.82 4.82 4.82 0 00.8 2.69l4.75 7-4.75 7a4.8 4.8 0 00-.8 2.66 4.64 4.64 0 002 3.84 4.51 4.51 0 002.61.82 4.67 4.67 0 003.75-2l3.86-5.61 3.84 5.61a4.76 4.76 0 003.75 2 4.6 4.6 0 002.59-.82 4.71 4.71 0 002-3.84 4.78 4.78 0 00-.84-2.66l-4.73-7zm-6 7c1.7 2.52 3.46 5 5.14 7.56a3.69 3.69 0 01-.89 5.07 3.53 3.53 0 01-5-.91l-4.66-6.8-4.68 6.8a3.65 3.65 0 01-2.93 1.56 3.58 3.58 0 01-2-.65 3.65 3.65 0 01-1.53-3 3.9 3.9 0 01.65-2.09l5.13-7.56-5.09-7.56a3.94 3.94 0 01-.65-2.11 3.66 3.66 0 011.53-3 3.57 3.57 0 012-.64 3.63 3.63 0 012.93 1.56l4.68 6.79 4.66-6.79a3.55 3.55 0 015-.92 3.69 3.69 0 01.89 5.07zm-14.11-9.69A2.69 2.69 0 01106 237c-1.2-.29-2.52.41-2.52 2.47a4.85 4.85 0 001.1 2.64 11.37 11.37 0 002 2.57 11.52 11.52 0 01-1.78-5.14zm15.19-1.2a3.25 3.25 0 011.9-.7 3 3 0 01.69.1 1.89 1.89 0 00-1.68-.77 2.25 2.25 0 00-1.44.62 19.68 19.68 0 00-2.88 4.28c.29 0 1.71-2.35 3.47-3.55zM373.85 242.58a6 6 0 01-.36-2.07 5.6 5.6 0 012.33-4.58 5.45 5.45 0 013.19-1 5.39 5.39 0 014.52 2.43c1 1.51 2.06 3 3.09 4.46 1-1.49 2.07-3 3.08-4.46a5.64 5.64 0 014.51-2.43 5.37 5.37 0 013.14 1 5.71 5.71 0 012.4 4.34l.55 2.78a4.65 4.65 0 01.1 1.06 5.73 5.73 0 01-1 3.19l-3.51 5.16 2.83 4.16a5.83 5.83 0 011 3l.55 2.71a4.94 4.94 0 01.1 1.08A5.6 5.6 0 01398 268a5.38 5.38 0 01-7.58-1.39l-3.1-4.54c-1 1.52-2.11 3-3.14 4.52a5.54 5.54 0 01-4.47 2.4 5.37 5.37 0 01-5.32-4.42l-.53-2.64a6.1 6.1 0 01-.39-2.09 5.66 5.66 0 011-3.21l3.58-5.21-2.81-4.11a5.31 5.31 0 01-.81-2zm24.1.62a4.83 4.83 0 00.84-2.69 4.73 4.73 0 00-2-3.82 4.56 4.56 0 00-2.59-.84 4.63 4.63 0 00-3.75 2l-3.84 5.59-3.86-5.59a4.48 4.48 0 00-6.36-1.18 4.74 4.74 0 00-1.95 3.82 4.82 4.82 0 00.8 2.69l4.75 7-4.75 7a4.8 4.8 0 00-.8 2.66 4.64 4.64 0 001.95 3.84 4.51 4.51 0 002.61.82 4.64 4.64 0 003.75-2l3.86-5.61 3.84 5.61a4.73 4.73 0 003.75 2 4.6 4.6 0 002.59-.82 4.71 4.71 0 002-3.84 4.78 4.78 0 00-.84-2.66l-4.73-7zm-5.95 7c1.7 2.52 3.46 5 5.14 7.56a3.69 3.69 0 01-.89 5.07 3.53 3.53 0 01-5-.91l-4.66-6.8-4.68 6.8a3.65 3.65 0 01-2.93 1.56 3.58 3.58 0 01-2-.65 3.65 3.65 0 01-1.53-3 3.9 3.9 0 01.65-2.09l5.13-7.56-5.13-7.56a3.94 3.94 0 01-.65-2.11 3.65 3.65 0 011.53-3 3.57 3.57 0 012-.64 3.63 3.63 0 012.93 1.56l4.68 6.79 4.66-6.79a3.55 3.55 0 015-.92 3.69 3.69 0 01.89 5.07zm-14.11-9.69a2.69 2.69 0 011.2-2.5c-1.2-.29-2.52.41-2.52 2.47a4.85 4.85 0 001.1 2.64 11.37 11.37 0 002 2.57 11.56 11.56 0 01-1.78-5.2zm15.19-1.2a3.25 3.25 0 011.9-.7 3 3 0 01.69.1 1.89 1.89 0 00-1.68-.77 2.25 2.25 0 00-1.44.62 19.44 19.44 0 00-2.88 4.28c.24 0 1.66-2.35 3.41-3.55z"/></svg>