<svg data-name="Layer 1" xmlns="http://www.w3.org/2000/svg" fill="white" width="50" height="50" viewBox="0 0 50 50">
  <path d="M25,0A25,25,0,1,0,50,25,25,25,0,0,0,25,0Zm0,48.33A23.33,23.33,0,1,1,48.33,25,23.32,23.32,0,0,1,25,48.33Z"/>
  <path d="M22.5,14.17h-5a.83.83,0,0,0-.83.83V35a.83.83,0,0,0,.83.83h5a.83.83,0,0,0,.83-.83V15A.83.83,0,0,0,22.5,14.17Zm-.83,20H18.33V15.83h3.34Z"/>
  <path d="M32.5,14.17h-5a.83.83,0,0,0-.83.83V35a.83.83,0,0,0,.83.83h5a.83.83,0,0,0,.83-.83V15A.83.83,0,0,0,32.5,14.17Zm-.83,20H28.33V15.83h3.34Z"/>
</svg>
