<svg height="512" viewBox="0 0 64 64" width="512" xmlns="http://www.w3.org/2000/svg"><path d="m59 2h-54a3 3 0 0 0 -3 3v44a3 3 0 0 0 3 3h20.132l-2.667 4h-8.465a1 1 0 0 0 -1 1v4a1 1 0 0 0 1 1h36a1 1 0 0 0 1-1v-4a1 1 0 0 0 -1-1h-8.465l-2.667-4h20.132a3 3 0 0 0 3-3v-44a3 3 0 0 0 -3-3zm-10 56v2h-34v-2zm-9.868-2h-14.264l2.667-4h8.93zm20.868-7a1 1 0 0 1 -1 1h-54a1 1 0 0 1 -1-1v-5h56zm0-7h-56v-37a1 1 0 0 1 1-1h54a1 1 0 0 1 1 1z"/><path d="m35 47a3 3 0 1 0 -3 3 3 3 0 0 0 3-3zm-3 1a1 1 0 1 1 1-1 1 1 0 0 1 -1 1z"/><path d="m22 6h-16v6h16zm-2 4h-12v-2h12z"/><path d="m6 36h20v-6h-20zm2-4h16v2h-16z"/><path d="m28 36h20v-6h-20zm2-4h16v2h-16z"/><path d="m6 38h20v2h-20z"/><path d="m28 38h2v2h-2z"/><path d="m32 38h16v2h-16z"/><path d="m50 30h8v2h-8z"/><path d="m50 34h8v2h-8z"/><path d="m50 38h8v2h-8z"/><path d="m12 18h-6v10h6zm-2 8h-2v-6h2z"/><path d="m20 28v-12h-6v12zm-4-10h2v8h-2z"/><path d="m22 28h6v-14h-6zm2-12h2v10h-2z"/><path d="m36 8h-6v20h6zm-2 18h-2v-16h2z"/><path d="m48 8a10 10 0 1 0 10 10 10.011 10.011 0 0 0 -10-10zm1 2.069a7.953 7.953 0 0 1 3.9 1.619l-3.9 3.9zm-1 15.931a8 8 0 0 1 -1-15.931v7.931a1 1 0 0 0 .3.7l-.006.006 5.606 5.606a7.953 7.953 0 0 1 -4.9 1.688zm6.312-3.1-4.9-4.9 4.9-4.9a7.949 7.949 0 0 1 0 9.8z"/><path d="m57 6h-3v2h2v2h2v-3a1 1 0 0 0 -1-1z"/><path d="m24 6h2v2h-2z"/></svg>