<svg height="512" viewBox="0 0 64 64" width="512" xmlns="http://www.w3.org/2000/svg"><g id="outline"><path d="m10 40h2v2h-2z"/><path d="m33 40h2v2h-2z"/><path d="m29 40h2v2h-2z"/><path d="m52 40h2v2h-2z"/><path d="m61 32h-11.586l-6.846-6.846a14 14 0 1 0 -21.136 0l-6.846 6.846h-11.586a1 1 0 0 0 -1 1v29h18v-6h-4v-22.586l6.846-6.846a13.919 13.919 0 0 0 8.154 3.381v2.051h-5a1 1 0 0 0 -1 1v15a3 3 0 0 0 -3 3v11h20v-11a3 3 0 0 0 -3-3v-15a1 1 0 0 0 -1-1h-5v-2.051a13.919 13.919 0 0 0 8.154-3.381l6.846 6.846v22.586h-4v6h18v-29a1 1 0 0 0 -1-1zm-57 2h10v2h-10zm0 4h10v6h-6v-2h-2v4h8v2h-10zm2 15v7h-2v-10h10v6h-2v-3a3 3 0 0 0 -6 0zm12 5v2h-10v-7a1 1 0 0 1 2 0v5zm8 2h-2v-9a1 1 0 0 1 1-1h1zm12-10h1a1 1 0 0 1 1 1v9h-2zm-2 10h-8v-10h8zm1-12h-10v-10h10zm0-14v2h-10v-2zm-5-6a12 12 0 1 1 12-12 12.013 12.013 0 0 1 -12 12zm24 32h-10v-2h8v-5a1 1 0 0 1 2 0zm4 0h-2v-7a3 3 0 0 0 -6 0v3h-2v-6h10zm0-12h-10v-2h8v-4h-2v2h-6v-6h10zm0-12h-10v-2h10z"/><path d="m29 44h6v2h-6z"/><path d="m32 6a6.993 6.993 0 0 0 -5 11.889v5.525l2.586 2.586h4.828l2.586-2.586v-5.524a6.994 6.994 0 0 0 -5-11.89zm3 16.586-1.414 1.414h-3.172l-1.414-1.414v-1.586h6zm.332-5.867-.332.3v1.981h-2v-3h2v-2h-6v2h2v3h-2v-1.983l-.333-.3a5 5 0 1 1 6.665 0z"/><path d="m3 26h8.9l4.9.98a.932.932 0 0 0 .2.02 1 1 0 0 0 .929-1.372l-1.929-4.82v-3.808a1 1 0 0 0 -1-1h-12a1 1 0 0 0 -1 1v8a1 1 0 0 0 1 1zm1-8h10v3a1.012 1.012 0 0 0 .071.372l1.315 3.285-3.186-.637a.925.925 0 0 0 -.2-.02h-8z"/><path d="m6 20h2v2h-2z"/><path d="m10 20h2v2h-2z"/><path d="m61 12h-12a1 1 0 0 0 -1 1v4.808l-1.929 4.82a1 1 0 0 0 1.3 1.3l4.821-1.928h8.808a1 1 0 0 0 1-1v-8a1 1 0 0 0 -1-1zm-1 8h-8a1.012 1.012 0 0 0 -.372.071l-2.828 1.134 1.134-2.833a1.012 1.012 0 0 0 .066-.372v-4h10z"/><path d="m56 16h2v2h-2z"/><path d="m52 16h2v2h-2z"/></g></svg>