<?xml version="1.0"?>
<svg xmlns="http://www.w3.org/2000/svg" viewBox="0 0 64 64" width="512" height="512"><g id="outline"><path d="M61,6H56.212L47.406,2.086a1,1,0,0,0-1.065.162L38.624,9H6a1,1,0,0,0-1,1V28a1,1,0,0,0,1,1H45.184a2.983,2.983,0,0,0,5.7-.22A2.99,2.99,0,0,0,55,26V22.535L57.3,21H61a1,1,0,0,0,1-1V7A1,1,0,0,0,61,6ZM45,27H7V11H34.184a2.809,2.809,0,0,0,0,2h-2.91A7.987,7.987,0,0,0,19.082,23H11V15h7V13H10a1,1,0,0,0-1,1V24a1,1,0,0,0,1,1H20.726A7.987,7.987,0,0,0,32.918,15H41v8H34v2h8a1,1,0,0,0,1-1V15h2ZM25,24v.91a5.993,5.993,0,0,1,0-11.82V14a3,3,0,0,0,0,6h2a1,1,0,0,1,0,2H23v2Zm2,0a3,3,0,0,0,0-6H25a1,1,0,0,1,0-2h4V14H27v-.91a5.993,5.993,0,0,1,0,11.82Zm22,4a1,1,0,0,1-2,0V23h2Zm4-2a1,1,0,0,1-2,0V23h2Zm7-7H57a1.006,1.006,0,0,0-.555.168L53.7,21H47V14a1,1,0,0,0-1-1H37a1,1,0,0,1,0-2H50V9H48.414l1.293-1.293L48.293,6.293,45.586,9H41.661l5.517-4.827,8.416,3.741A1,1,0,0,0,56,8h4Z"/><rect x="13" y="18" width="2" height="2"/><rect x="37" y="18" width="2" height="2"/><path d="M3,60H7v1a1,1,0,0,0,1,1h4a1,1,0,0,0,1-1v-.847L25.858,61.99A.978.978,0,0,0,26,62a1,1,0,0,0,.447-.1l17.824-8.912a3.46,3.46,0,0,0,1.655-4.354h0A3.27,3.27,0,0,0,44.057,46.7a4.245,4.245,0,0,0-3.451.378l-9.911,3.6A3,3,0,0,0,28,49H13V48a1,1,0,0,0-1-1H8a1,1,0,0,0-1,1v1H3a1,1,0,0,0-1,1v9A1,1,0,0,0,3,60Zm10-9H28a1,1,0,0,1,0,2H18v2H28a3,3,0,0,0,2.9-2.262l10.445-3.8a.975.975,0,0,0,.105-.045,2.517,2.517,0,0,1,1.9-.324,1.312,1.312,0,0,1,.723.8,1.447,1.447,0,0,1-.693,1.822L25.832,59.966,13,58.133ZM9,49h2V60H9ZM4,51H7v7H4Z"/><path d="M38,31H14a2,2,0,0,0-2,2V45a2,2,0,0,0,2,2H38a2,2,0,0,0,2-2V33A2,2,0,0,0,38,31ZM14,33h6V45H14ZM38,45H22V33H38Z"/><rect x="16" y="38" width="2" height="2"/></g></svg>
