<svg height="480pt" viewBox="0 0 480 480" width="480pt" xmlns="http://www.w3.org/2000/svg"><path d="m440 72h-176v-24h8c13.253906 0 24-10.746094 24-24s-10.746094-24-24-24h-64c-13.253906 0-24 10.746094-24 24s10.746094 24 24 24h8v24h-176c-22.082031.027344-39.9726562 17.917969-40 40v192c.0273438 22.082031 17.917969 39.972656 40 40h152v72h-40c-17.671875 0-32 14.328125-32 32s14.328125 32 32 32h176c17.671875 0 32-14.328125 32-32s-14.328125-32-32-32h-40v-72h152c22.082031-.027344 39.972656-17.917969 40-40v-192c-.027344-22.082031-17.917969-39.972656-40-40zm-240-48c0-4.417969 3.582031-8 8-8h64c4.417969 0 8 3.582031 8 8s-3.582031 8-8 8h-64c-4.417969 0-8-3.582031-8-8zm32 24h16v24h-16zm-192 40h400c13.253906 0 24 10.746094 24 24v152h-448v-152c0-13.253906 10.746094-24 24-24zm304 360c0 8.835938-7.164062 16-16 16h-176c-8.835938 0-16-7.164062-16-16s7.164062-16 16-16h176c8.835938 0 16 7.164062 16 16zm-72-32h-64v-72h64zm168-88h-400c-10.132812-.042969-19.148438-6.445312-22.527344-16h254.527344c4.417969 0 8-3.582031 8-8s-3.582031-8-8-8h-256v-16h448v16h-112c-4.417969 0-8 3.582031-8 8s3.582031 8 8 8h110.527344c-3.378906 9.554688-12.394532 15.957031-22.527344 16zm0 0"/><path d="m163.199219 230.398438c3.535156 2.652343 8.550781 1.9375 11.199219-1.597657 2.652343-3.535156 1.9375-8.550781-1.597657-11.199219l-56.105469-42.082031 56.578126-49.496093c3.324218-2.910157 3.664062-7.96875.75-11.296876-2.910157-3.324218-7.96875-3.664062-11.296876-.75l-64 56c-1.816406 1.589844-2.816406 3.914063-2.726562 6.324219.09375 2.410157 1.269531 4.652344 3.199219 6.097657zm0 0"/><path d="m363.304688 175.519531-56.105469 42.082031c-3.535157 2.648438-4.25 7.664063-1.597657 11.199219 2.648438 3.535157 7.664063 4.25 11.199219 1.597657l64-48c1.929688-1.445313 3.105469-3.6875 3.199219-6.097657.089844-2.410156-.910156-4.734375-2.726562-6.324219l-64-56c-3.328126-2.914062-8.386719-2.574218-11.296876.75-2.914062 3.328126-2.574218 8.386719.75 11.296876zm0 0"/><path d="m196.078125 246.96875c1.195313.679688 2.546875 1.035156 3.921875 1.03125 2.894531.003906 5.566406-1.554688 6.984375-4.078125l72-128c2.164063-3.855469.796875-8.734375-3.054687-10.898437-3.855469-2.164063-8.734376-.796876-10.898438 3.054687l-72 128c-2.160156 3.851563-.796875 8.722656 3.046875 10.890625zm0 0"/><path d="m320 296h-16c-4.417969 0-8 3.582031-8 8s3.582031 8 8 8h16c4.417969 0 8-3.582031 8-8s-3.582031-8-8-8zm0 0"/><path d="m426.320312 117.679688c2.289063 2.289062 5.742188 2.957031 8.71875 1.679687.96875-.40625 1.863282-.972656 2.640626-1.679687.703124-.777344 1.273437-1.671876 1.679687-2.640626.851563-1.9375.851563-4.140624 0-6.078124-.40625-.96875-.972656-1.863282-1.679687-2.640626-3.207032-2.960937-8.152344-2.960937-11.359376 0-.722656.765626-1.292968 1.660157-1.679687 2.640626-.851563 1.9375-.851563 4.140624 0 6.078124.40625.96875.976563 1.863282 1.679687 2.640626zm0 0"/><path d="m394.320312 117.679688c.777344.707031 1.671876 1.273437 2.640626 1.679687 1.9375.855469 4.140624.855469 6.078124 0 .96875-.40625 1.863282-.972656 2.640626-1.679687.703124-.777344 1.273437-1.671876 1.679687-2.640626.851563-1.9375.851563-4.140624 0-6.078124-.40625-.96875-.972656-1.863282-1.679687-2.640626-3.207032-2.960937-8.152344-2.960937-11.359376 0-.722656.765626-1.292968 1.660157-1.679687 2.640626-.851563 1.9375-.851563 4.140624 0 6.078124.40625.96875.976563 1.863282 1.679687 2.640626zm0 0"/><path d="m362.320312 117.679688c.777344.707031 1.671876 1.273437 2.640626 1.679687 1.9375.855469 4.140624.855469 6.078124 0 .96875-.40625 1.863282-.972656 2.640626-1.679687.703124-.777344 1.273437-1.671876 1.679687-2.640626.851563-1.9375.851563-4.140624 0-6.078124-.40625-.96875-.972656-1.863282-1.679687-2.640626-3.207032-2.960937-8.152344-2.960937-11.359376 0-.722656.765626-1.292968 1.660157-1.679687 2.640626-.851563 1.9375-.851563 4.140624 0 6.078124.40625.96875.976563 1.863282 1.679687 2.640626zm0 0"/></svg>