<svg viewBox="0 0 354 500" fill="none" xmlns="http://www.w3.org/2000/svg">
<g clip-path="url(#clip0)">
<path d="M32.7734 459.822L0.635742 98.2751L353.783 98.2751L321.61 459.766L176.993 499.978L32.7734 459.822Z" fill="#E34E27"/>
<path d="M177.209 469.24L294.067 436.747L321.561 127.837H177.209V469.24Z" fill="#E34E27"/>
<path d="M33.4922 0.0222168L55.9593 0.0222168V22.2859H76.5114V0.0222168L98.9795 0.0222168V67.442H76.5124V44.8659H55.9603V67.442H33.4941V0.0222168H33.4922ZM128.525 22.3796H108.746V0.0222168L170.782 0.0222168V22.3796H150.995V67.442H128.526L128.525 22.3796ZM180.627 0.0222168L204.053 0.0222168L218.464 23.7115L232.861 0.0222168L256.297 0.0222168V67.442H233.922V34.0251L218.465 57.9966H218.08L202.61 34.0251V67.442H180.628V0.0222168H180.627ZM267.479 0.0222168L289.953 0.0222168V45.1569H321.548V67.442L267.479 67.442V0.0222168Z" fill="#E34E27"/>
<path fill-rule="evenodd" clip-rule="evenodd" d="M118.706 261.93L177.056 261.93H267.908H279.822L278.743 273.837L268.354 390.575L267.689 398.067L177.208 423.219V423.226L177.005 423.283L86.4432 398.067L80.2493 328.443H124.63L127.777 363.808L177.016 377.143L177.056 377.132V377.128L226.364 363.78L231.496 306.271L177.208 306.271H78.2739L67.4079 184.076L66.3496 172.18H177.056H177.208H287.803L286.746 184.076L284.732 206.556L283.845 216.523L177.208 216.523L177.056 216.523L114.666 216.523L118.706 261.93Z" fill="white"/>
</g>
<defs>
<clipPath id="clip0">
<rect width="353.147" height="500" fill="white" transform="translate(0.635742)"/>
</clipPath>
</defs>
</svg>
