<svg viewBox="0 0 873 800" fill="none" xmlns="http://www.w3.org/2000/svg">
<path d="M467.721 603.579L354.387 183.013L771.913 109.392L809.201 543.298L646.599 620.968L467.721 603.579Z" fill="#E34E27"/>
<path d="M367.383 231.238L467.722 603.579L544.092 611.003L546.72 640.717L383.676 718.08L203.816 703.259L86.1978 282.523L367.383 231.238Z" fill="#2062AF"/>
<path fill-rule="evenodd" clip-rule="evenodd" d="M390.476 316.935L179.167 355.476L194.99 405.989L329.511 381.454L322.9 385.733L209.494 459.141L222.777 508.918L222.946 508.807L222.966 508.884L405.115 476.261L413.328 544.362L356.497 572.125L296.265 568.112L285.15 526.939L231.644 536.698L253.345 616.139L367.351 628.344L461.675 581.142L418.524 421.016L331.906 436.814L332.183 436.631L409.047 385.847L390.476 316.935Z" fill="white"/>
<path d="M372.759 60.0514L399.322 55.3676L403.961 81.6781L428.26 77.3936L423.62 51.0831L450.185 46.3991L464.233 126.074L437.67 130.758L432.966 104.078L408.667 108.362L413.372 135.042L386.81 139.726L372.761 60.051L372.759 60.0514ZM489.774 66.6611L466.391 70.7843L461.732 44.363L535.077 31.4303L539.736 57.8516L516.341 61.9768L525.731 115.23L499.167 119.914L489.774 66.6611ZM546.717 29.3779L574.413 24.4942L596.388 49.4853L608.473 18.4886L636.181 13.6029L650.23 93.2776L623.777 97.942L616.813 58.4509L603.533 90.0021L603.077 90.0825L579.793 64.9786L586.756 104.47L560.767 109.052L546.718 29.3777L546.717 29.3779ZM649.401 11.2719L675.972 6.58669L685.377 59.9255L722.732 53.3387L727.376 79.6746L663.45 90.9465L649.401 11.2719Z" fill="#E34E27"/>
<path fill-rule="evenodd" clip-rule="evenodd" d="M381.324 108.611L386.243 136.513L380.305 137.596L410.974 158.321L413.574 172.577L354.387 183.013L357.446 194.364L350.465 195.638L345.827 170.209C345.827 170.209 347.183 169.96 349.307 169.57C355.027 168.519 366.319 166.445 371.69 165.466C363.555 159.849 358.279 156.305 353.489 153.087C349.506 150.411 345.858 147.961 341.18 144.732L336.097 116.86L381.324 108.611ZM183.795 173.437L188.441 198.909L225.663 192.12L230.302 217.554L165.164 229.434L150.796 150.657L215.934 138.776L221.017 166.648L183.795 173.437ZM313.998 149.69L287.975 154.436L318.644 175.161L323.283 200.595L258.139 212.477L253.501 187.048C253.501 187.048 254.853 186.8 256.973 186.411C262.69 185.36 273.986 183.286 279.362 182.305C271.226 176.689 265.951 173.145 261.162 169.927C257.179 167.251 253.531 164.8 248.854 161.571L243.77 133.699L308.915 121.818L313.998 149.69Z" fill="#2062AF"/>
<path fill-rule="evenodd" clip-rule="evenodd" d="M606.491 392.006L489.521 412.631L451.211 270.49L447.481 256.652L578.369 233.573L578.369 233.573L709.305 210.485L710.534 224.764L712.837 251.75L713.865 263.713L587.789 285.944L513.846 298.982L528.084 351.801L597.071 339.636L704.485 320.696L718.571 318.213L719.777 332.509L731.819 472.633L732.594 481.625L630.86 530.211L630.862 530.219L630.633 530.329L518.307 519.409L496.476 438.422L548.947 429.17L560.038 470.307L621.031 475.8L621.077 475.779L621.076 475.775L676.591 449.721L670.675 380.689L606.491 392.006Z" fill="white"/>
</svg>
