<svg viewBox="0 0 500 615" xmlns="http://www.w3.org/2000/svg"><path d="M31.25 115h437.5l-39.792 449.229L249.521 615 71.104 564.208 31.25 115zm146.479 203.125l-4.833-56.625 209.562.063 4.792-54.625-274.5-.063 14.542 166.875h190.125l-6.792 71.375L250 461.875 188.438 445l-3.917-43.958h-54.354l6.875 86.895L250 518.146l112.063-30.063 15.499-169.937H177.729v-.021zM177.184 25.2V91h-18.612V65.338h-25.38V91H114.58V25.2h18.612v24.722h25.38V25.2h18.612zm27.134 14.758h-20.21V25.2h58.938v14.758H222.93V91h-18.612V39.958zM309.388 91l-.188-34.874-16.92 28.388h-8.272l-16.826-27.448V91H249.98V25.2h15.322l23.124 37.976 22.56-37.976h15.322l.188 65.8h-17.108zm30.278-65.8h18.612v51.042h31.396V91h-50.008V25.2z"/></svg>