<svg data-name="Layer 1" xmlns="http://www.w3.org/2000/svg" viewBox="0 0 698 441.88">
  <path
    d="M0 92.85l65.56-28.76v16.58L21 100.22l44.56 19.53v16.59L0 107.58V92.85zM127.92 68.08h18.42v70.79h-18.42v-27.33H93.79v27.33H75.37V68.08h18.42v27.33h34.13V68.08zM193.21 122.69h18.22v16.25h-54.88v-16.2h18.22v-27a27.76 27.76 0 01-15.65 4.5h-2.1V83h2.1c7.54 0 15.65-4 15.65-12.8v-2.1h18.42zM367.79 116.64c0 14-13.5 23.35-33.59 23.35-20.73 0-39.94-10.34-39.94-10.34l7.67-15.36s18 8.68 31 8.68c11 0 17.32-1.38 17.32-6 0-3.46-1.58-6.24-20.47-6.24-25 0-30.26-8.53-30.26-18.24 0-16 13-25.49 34.67-25.49 19.48 0 30.34 7.39 30.34 7.39l-6.37 15.55s-12.38-6-25.12-6c-10.92 0-15.84 3-15.84 6 0 2.79 1.65 5 20 5 18.6 0 30.59 7.15 30.59 21.7zM371.28 68.08h66.65v16.13h-24.11v54.66h-18.43V84.21h-24.11V68.08zM293.41 229.6c-7.84 10.29-20.36 16-35.25 16-24.81 0-42.81-14.14-42.81-36.51s18-36.44 42.81-36.44c14.88 0 27.39 5.66 35.22 15.93l-14.47 9.36c-3.63-5.76-10.61-8.67-20.75-8.67-16.13 0-24 5-24 19.76s7.84 19.84 24 19.84c10.16 0 17.15-2.92 20.77-8.7zM499.76 228.26h18.22v16.19h-54.86v-16.19h18.23v-27a27.84 27.84 0 01-15.65 4.5h-2.15v-17.2h2.11c7.53 0 15.65-4 15.65-12.79v-2.11h18.41zM579.42 173.65h17.37v70.79h-16.55l-36.92-43.92v43.92h-17.37v-70.79h16.55l36.92 43.92v-43.92zM649.82 205.94h40.88v38.52h-18.42v-5.22a47.31 47.31 0 01-24.4 6.29c-24.8 0-42.8-14.1-42.8-36.46s18-36.47 42.8-36.47c27.13 0 39.4 13.23 39.4 13.23l-13 10.82s-7.55-7.38-26.35-7.38c-16.12 0-24 5-24 19.79s7.84 19.8 24 19.8c9 0 15.37-2.24 19.26-6.83h-17.37zM167 327.76c0 14-13.49 23.36-33.59 23.36-20.73 0-39.93-10.35-39.93-10.35l7.66-15.36s18 8.69 31 8.69c11 0 17.31-1.39 17.31-6 0-3.47-1.58-6.25-20.47-6.25-25 0-30.25-8.52-30.25-18.23 0-16 13-25.5 34.66-25.5 19.48 0 30.35 7.39 30.35 7.39l-6.38 15.52s-12.38-6-25.12-6c-10.92 0-15.84 3-15.84 6 0 2.78 1.64 5 20 5 18.61.08 30.6 7.18 30.6 21.73zM250.33 335.16c-7.83 10.29-20.35 16-35.25 16-24.81 0-42.81-14.15-42.81-36.52s18-36.44 42.81-36.44c14.88 0 27.39 5.66 35.23 15.93l-14.48 9.42c-3.62-5.76-10.6-8.67-20.75-8.67-16.13 0-24 5-24 19.76s7.85 19.84 24 19.84c10.16 0 17.15-2.92 20.77-8.7zM310.2 279.2h18.42v70.79H310.2v-27.33h-34.13v27.33h-18.42V279.2h18.42v27.34h34.13V279.2zM290.48 93.56c0 12.49-6.7 27.08-25.56 27.08h-27.1v18.23H219.4V68.08h44.15c21.29 0 26.93 16.67 26.93 25.48zm-52.67-9.35v20.3h27.1c8.15 0 8.24-9 8.24-9.35 0-3.29-.93-11-9.64-11zm241.54-16.13l25.88 70.79h-18.68l-4.15-11.38h-30l-4.17 11.38h-18.68l25.9-70.79zM467.4 86.51l-9.09 24.86h18.18zM374.55 209.1c0 23.81-14.79 36.47-38.6 36.47s-38.6-12.67-38.6-36.47 14.8-36.48 38.6-36.48 38.6 12.67 38.6 36.48zm-38.6-19.81c-16.7 0-19.75 5.27-19.75 19.81s3 19.8 19.75 19.8 19.75-5.26 19.75-19.8-3.1-19.81-19.8-19.81zm119.54 19.7c0 23.83-11.76 35.45-32.28 35.45h-38.88v-70.79h38.83c20.52 0 32.28 11.51 32.28 35.34zm-32.28-19.21h-20.46v38.53h20.41c6.85 0 13 .42 13-19.32s-6.15-19.21-13-19.21zm-.66 124.86c0 22.37-18 36.48-42.82 36.48s-42.8-14.11-42.8-36.48 18-36.48 42.8-36.48 42.82 14.12 42.82 36.48zm-42.8-19.8c-16.12 0-24 5.05-24 19.8s7.84 19.8 24 19.8 24-5 24-19.8-7.87-19.8-24-19.8zm133.52 19.8c0 22.37-18 36.48-42.82 36.48s-42.8-14.11-42.8-36.48 18-36.48 42.8-36.48 42.82 14.12 42.82 36.48zm-42.82-19.8c-16.12 0-24 5.05-24 19.8s7.84 19.8 24 19.8 24-5 24-19.8-7.9-19.8-24-19.8zM539.93 333.87h40.13V350h-58.55v-70.79h18.42v54.66zM628.06 256.19l-29.47 120.59h-18.53l29.47-120.59h18.53zM633.49 275.22l65.56 28.75v14.73l-65.56 28.76v-16.58l44.55-19.54-44.55-19.54v-16.58zM0 274.78h85.28v102H0zM523.02 51.45h176.09v110.77H523.02zM0 151.59h200.61v110.77H0z" />
  </svg>