<svg height="512" viewBox="0 0 64 64" width="512" xmlns="http://www.w3.org/2000/svg"><path d="m3 62h50a1 1 0 0 0 1-1v-3h7a1 1 0 0 0 1-1v-50a5.006 5.006 0 0 0 -5-5h-50a5.006 5.006 0 0 0 -5 5v54a1 1 0 0 0 1 1zm12-16v-2h2v2h2v-2h2v2h2v-2h2v4h-14v-4h2v2zm-5 4h2v2h2v-2h2v2h2v-2h2v2h2v-2h2v4h-14zm0 10v-4h2v2h2v-2h2v2h2v-2h2v2h2v-2h2v4zm47-56a3 3 0 0 1 3 3v49h-6v-49a3 3 0 0 1 3-3zm-53 3a3 3 0 0 1 3-3h46a4.98 4.98 0 0 0 -1 3v12h-1.866a7.573 7.573 0 0 0 .076-1.013 7.691 7.691 0 0 0 -2.591-5.723 9.33 9.33 0 0 0 -11.609-.554 9.33 9.33 0 0 0 -11.609.554 7.616 7.616 0 0 0 0 11.446l10.935 9.968a1 1 0 0 0 1.348 0l10.935-9.968a8.005 8.005 0 0 0 1.957-2.71h2.424v39h-26v-10a1 1 0 0 0 1-1v-6a1 1 0 0 0 -1-1h-16a1 1 0 0 0 -1 1v5a1 1 0 0 0 -1 1v11h-4zm26.991 14a1 1 0 0 0 .8-.4l2.029-2.7 3.28 6.549a1 1 0 0 0 .866.552h.028a1 1 0 0 0 .868-.5l3.2-5.6 1.1 1.654a1 1 0 0 0 .832.445h3.317a6.163 6.163 0 0 1 -1.037 1.231l-10.264 9.355-10.261-9.354a5.615 5.615 0 0 1 0-8.489 7.261 7.261 0 0 1 9.587 0 1 1 0 0 0 1.348 0 7.259 7.259 0 0 1 9.587 0 5.716 5.716 0 0 1 1.939 4.245 5.513 5.513 0 0 1 -.1 1.012h-3.584l-1.7-2.555a.976.976 0 0 0 -.869-.445 1 1 0 0 0 -.834.5l-3.073 5.383-3.164-6.328a1 1 0 0 0 -1.7-.153l-2.7 3.6h-3.5v2z"/><path d="m30 48h18v2h-18z"/><path d="m30 44h20v2h-20z"/><path d="m30 56h20v2h-20z"/><path d="m30 52h16v2h-16z"/><path d="m30 40h16v2h-16z"/><path d="m30 36h20v2h-20z"/><path d="m7 28h10v2h-10z"/><path d="m7 32h2v2h-2z"/><path d="m11 32h6v2h-6z"/><path d="m7 36h12v2h-12z"/><path d="m19 28h4v2h-4z"/><path d="m19 32h7v2h-7z"/><path d="m21 36h4v2h-4z"/><path d="m10 26h6v-10h4v-6h-4v-4h-6v4h-4v6h4zm-2-12v-2h4v-4h2v4h4v2h-4v10h-2v-10z"/><path d="m48 6h2v2h-2z"/><path d="m46 8h2v2h-2z"/></svg>