<svg height="512" viewBox="0 0 64 64" width="512" xmlns="http://www.w3.org/2000/svg"><g id="outline"><path d="m15 42h7v-10h-7zm2-8h3v6h-3z"/><path d="m61 18h-2.738l-22.325-12.618a3.983 3.983 0 0 0 -7.873-.012l-23.317 12.63h-1.747a1 1 0 0 0 -1 1v4a1 1 0 0 0 1 1h4v29a1 1 0 0 0 .684.948l24 8a.986.986 0 0 0 .632 0l24-8a1 1 0 0 0 .684-.948v-29h4a1 1 0 0 0 1-1v-4a1 1 0 0 0 -1-1zm-6 30h-46v-2h46zm-46-4v-14h46v14zm23-34a4.005 4.005 0 0 0 3.69-2.461l18.51 10.461h-45.255l19.355-10.485a4 4 0 0 0 3.7 2.485zm-23 16h46v2h-46zm0-2v-4h46v4zm23-20a2 2 0 1 1 -2 2 2 2 0 0 1 2-2zm-28 18v-2h3v2zm28 37.946-23-7.667v-2.279h46v2.279zm28-37.946h-3v-2h3z"/><path d="m31 52h2v2h-2z"/><path d="m35 52h2v2h-2z"/><path d="m27 52h2v2h-2z"/><path d="m24 42h2v-4h5v-6h-7zm5-6h-3v-2h3z"/><path d="m33 42h6v-2h-4v-2h4v-2h-4v-2h4v-2h-6z"/><path d="m47 32v8h-.219l-2-8h-3.781v10h2v-8h.219l2 8h3.781v-10z"/></g></svg>