<svg height="512" viewBox="0 0 64 64" width="512" xmlns="http://www.w3.org/2000/svg"><path d="m61 51h-1v-9a1 1 0 0 0 -1.095-1c-18.517 1.764-24.818 5.133-26.215 6.039-.231-.01-.446-.039-.69-.039s-.459.029-.69.043c-1.4-.906-7.7-4.275-26.215-6.039a1 1 0 0 0 -1.095.996v9h-1a1 1 0 0 0 -1 1v4a1 1 0 0 0 1 1h25a1 1 0 0 0 1-1 3 3 0 0 1 6 0 1 1 0 0 0 1 1h25a1 1 0 0 0 1-1v-4a1 1 0 0 0 -1-1zm-51 4h-6v-2h6zm-4-4v-2h12v-2h-12v-3.9c12.678 1.286 19.193 3.332 22.188 4.6a7.781 7.781 0 0 0 -3.782 3.3zm46 4h-15.1a5 5 0 0 0 -9.8 0h-15.1v-2h13a1 1 0 0 0 .895-.553c1.143-2.287 3.197-3.447 6.105-3.447s4.962 1.16 6.1 3.447a1 1 0 0 0 .9.553h13zm-12.406-4a7.772 7.772 0 0 0 -3.808-3.307c2.954-1.261 9.419-3.293 22.214-4.593v3.9h-12v2h12v2zm20.406 4h-6v-2h6z"/><path d="m42 47h2v2h-2z"/><path d="m11 15a1 1 0 0 0 -1 1v20a1 1 0 0 0 1 1h10.685l9.742 6.819a1 1 0 0 0 .573.181 1 1 0 0 0 1-1v-6h10a1 1 0 0 0 1-1v-20a1 1 0 0 0 -1-1zm31 20h-10a1 1 0 0 0 -1 1v5.08l-8.427-5.9a1 1 0 0 0 -.573-.18h-10v-18h30z"/><path d="m14 19h10v2h-10z"/><path d="m14 23h6v2h-6z"/><path d="m26 19h14v2h-14z"/><path d="m14 27h17v2h-17z"/><path d="m22 23h18v2h-18z"/><path d="m33 27h7v2h-7z"/><path d="m14 31h26v2h-26z"/><path d="m46 18h2c0-7.909-6.93-8-7-8v2c.2 0 5 .068 5 6z"/><path d="m50 18h2c0-11.863-10.89-12-11-12v2c.368 0 9 .114 9 10z"/><path d="m6 18h2c0-5.782 4.493-5.995 5.005-6l-.005-2c-.07 0-7 .091-7 8z"/><path d="m13 8v-2c-.11 0-11 .137-11 12h2c0-9.84 8.635-10 9-10z"/></svg>