<?xml version="1.0"?>
<svg xmlns="http://www.w3.org/2000/svg" viewBox="0 0 64 64" width="512" height="512"><g id="outline"><path d="M61,36H55a1,1,0,0,0-1,1v2H46.162l-8.846-2.949A1,1,0,0,0,37,36H24a1,1,0,0,0-.707.293L21.586,38H10V37a1,1,0,0,0-1-1H3a1,1,0,0,0-1,1V55a1,1,0,0,0,1,1H9a1,1,0,0,0,1-1V54H20.586l6.707,6.707A1,1,0,0,0,28,61h3.586a2,2,0,0,0,1.848-1.235A1.968,1.968,0,0,0,33.568,59h2.018a2,2,0,0,0,1.848-1.235A1.968,1.968,0,0,0,37.568,57h2.018a2,2,0,0,0,1.848-1.235A1.968,1.968,0,0,0,41.568,55h2.018a2,2,0,0,0,1.848-1.235A1.968,1.968,0,0,0,45.568,53H54v2a1,1,0,0,0,1,1h6a1,1,0,0,0,1-1V37A1,1,0,0,0,61,36ZM8,54H4V38H8Zm46-3H44.414l-3.707-3.707-1.414,1.414L43.586,53H40.414l-5.707-5.707-1.414,1.414L39.586,55H36.414l-5.707-5.707-1.414,1.414L35.586,57H32.414l-5.707-5.707-1.414,1.414L31.586,59H28.414l-6.707-6.707A1,1,0,0,0,21,52H10V40h9.586l-1.879,1.879A3,3,0,0,0,19.829,47H23a1,1,0,0,0,.707-.293L27.414,43h6.253L37.4,45.8l1.2-1.6-4-3A1,1,0,0,0,34,41H27a1,1,0,0,0-.707.293L22.586,45H19.829a1,1,0,0,1-.708-1.707L24.414,38H36.838l8.846,2.949A1,1,0,0,0,46,41h8Zm6,3H56V38h4Z"/><path d="M32,33A15,15,0,1,0,17,18,15.017,15.017,0,0,0,32,33ZM32,5A13,13,0,1,1,19,18,13.015,13.015,0,0,1,32,5Z"/><path d="M40.129,23.54a1,1,0,0,0,.649.238,1.017,1.017,0,0,0,.182-.016,1,1,0,0,0,.7-.5A11.01,11.01,0,0,0,43,18,11.155,11.155,0,0,0,34.2,7.02,1,1,0,0,0,33,8v9a1,1,0,0,0,.351.761ZM35,9.319A9.341,9.341,0,0,1,41,18a8.989,8.989,0,0,1-.578,3.161L35,16.539Z"/><path d="M34,29a.96.96,0,0,0,.2-.02A11.011,11.011,0,0,0,38.6,26.8a1,1,0,0,0,.106-1.506l-4-4A1,1,0,0,0,33,22v6a1,1,0,0,0,1,1Zm1-4.586,1.446,1.446A9.684,9.684,0,0,1,35,26.641Z"/><path d="M23.222,23.778a1,1,0,0,0,.649-.238l6.778-5.779A1,1,0,0,0,31,17V8a1,1,0,0,0-1.2-.98A11.155,11.155,0,0,0,21,18a11.01,11.01,0,0,0,1.344,5.257,1,1,0,0,0,.7.5A1.017,1.017,0,0,0,23.222,23.778ZM29,9.319v7.22l-5.422,4.622A8.989,8.989,0,0,1,23,18,9.341,9.341,0,0,1,29,9.319Z"/><path d="M30.383,21.076a1,1,0,0,0-1.09.217l-4,4A1,1,0,0,0,25.4,26.8a11.011,11.011,0,0,0,4.4,2.185A.96.96,0,0,0,30,29a1,1,0,0,0,1-1V22A1,1,0,0,0,30.383,21.076ZM29,26.641a9.684,9.684,0,0,1-1.446-.781L29,24.414Z"/><path d="M17,36h4V34a6.006,6.006,0,0,0-6-6H11v2A6.006,6.006,0,0,0,17,36Zm-2-6a4,4,0,0,1,4,4H17a4,4,0,0,1-4-4Z"/><path d="M43,34v2h4a6.006,6.006,0,0,0,6-6V28H49A6.006,6.006,0,0,0,43,34Zm6-4h2a4,4,0,0,1-4,4H45A4,4,0,0,1,49,30Z"/></g></svg>
