<?xml version="1.0"?>
<svg xmlns="http://www.w3.org/2000/svg" viewBox="0 0 64 64" width="512" height="512"><g id="outline"><path d="M3,62H29a1,1,0,0,0,1-1V38a1,1,0,0,0-.641-.934l-13-5a1.02,1.02,0,0,0-.718,0l-13,5A1,1,0,0,0,2,38V61A1,1,0,0,0,3,62ZM4,38.687l12-4.616,12,4.616v3.857L16.359,38.066a1.009,1.009,0,0,0-.718,0L4,42.544Zm0,6,12-4.616,12,4.616V60H4Z"/><path d="M26,48a4,4,0,1,0-4,4A4,4,0,0,0,26,48Zm-4,2a2,2,0,1,1,2-2A2,2,0,0,1,22,50Z"/><path d="M18,54v3a1,1,0,0,0,1,1h6a1,1,0,0,0,1-1V54a2,2,0,0,0-2-2H20A2,2,0,0,0,18,54Zm6,0v2H20V54Z"/><path d="M15,46H7a1,1,0,0,0-1,1v6a1,1,0,0,0,1,1H8.72l-.69,2.758A1,1,0,0,0,9,58h4a1,1,0,0,0,.97-1.242L13.28,54H15a1,1,0,0,0,1-1V47A1,1,0,0,0,15,46ZM10.281,56l.5-2h.438l.5,2ZM14,52H8V48h6Z"/><path d="M55,46H47a1,1,0,0,0-1,1v6a1,1,0,0,0,1,1h1.72l-.69,2.758A1,1,0,0,0,49,58h4a1,1,0,0,0,.97-1.242L53.28,54H55a1,1,0,0,0,1-1V47A1,1,0,0,0,55,46ZM50.281,56l.5-2h.438l.5,2ZM54,52H48V48h6Z"/><path d="M21,13A11,11,0,1,0,32,2,11.013,11.013,0,0,0,21,13Zm8.394-8.614A17.34,17.34,0,0,0,26.755,9H23.94A9.041,9.041,0,0,1,29.394,4.386ZM23,13a8.971,8.971,0,0,1,.233-2H26.2a10.251,10.251,0,0,0,0,4H23.233A8.971,8.971,0,0,1,23,13Zm.94,4h2.815a17.34,17.34,0,0,0,2.639,4.614A9.041,9.041,0,0,1,23.94,17ZM31,20.408A16.176,16.176,0,0,1,28.919,17H31ZM31,15H28.243a8.352,8.352,0,0,1,0-4H31Zm0-6H28.919A16.176,16.176,0,0,1,31,5.592Zm3.606,12.614A17.34,17.34,0,0,0,37.245,17H40.06A9.041,9.041,0,0,1,34.606,21.614ZM41,13a8.971,8.971,0,0,1-.233,2H37.8a10.251,10.251,0,0,0,0-4h2.964A8.971,8.971,0,0,1,41,13Zm-.94-4H37.245a17.34,17.34,0,0,0-2.639-4.614A9.041,9.041,0,0,1,40.06,9ZM33,5.592A16.176,16.176,0,0,1,35.081,9H33ZM33,11h2.757a8.352,8.352,0,0,1,0,4H33Zm0,6h2.081A16.176,16.176,0,0,1,33,20.408Z"/><path d="M61,26H41a1,1,0,0,0-1,1V44H33a1,1,0,0,0-1,1V61a1,1,0,0,0,1,1H61a1,1,0,0,0,1-1V27A1,1,0,0,0,61,26ZM40,60H34V46h6Zm20,0H42V28H60Z"/><rect x="36" y="48" width="2" height="2"/><rect x="36" y="52" width="2" height="2"/><rect x="36" y="56" width="2" height="2"/><path d="M45,36h4a1,1,0,0,0,1-1V31a1,1,0,0,0-1-1H45a1,1,0,0,0-1,1v4A1,1,0,0,0,45,36Zm1-4h2v2H46Z"/><path d="M53,36h4a1,1,0,0,0,1-1V31a1,1,0,0,0-1-1H53a1,1,0,0,0-1,1v4A1,1,0,0,0,53,36Zm1-4h2v2H54Z"/><path d="M45,44h4a1,1,0,0,0,1-1V39a1,1,0,0,0-1-1H45a1,1,0,0,0-1,1v4A1,1,0,0,0,45,44Zm1-4h2v2H46Z"/><path d="M53,44h4a1,1,0,0,0,1-1V39a1,1,0,0,0-1-1H53a1,1,0,0,0-1,1v4A1,1,0,0,0,53,44Zm1-4h2v2H54Z"/><path d="M51,12H45v2h5v6.587l-1.294-1.294-1.414,1.414,3,3a1,1,0,0,0,1.414,0l3-3-1.414-1.414L52,20.587V13A1,1,0,0,0,51,12Z"/><path d="M15,13V30h2V14h2V12H16A1,1,0,0,0,15,13Z"/></g></svg>
